<?xml version="1.0" encoding="utf-8"?>
<!-- Generator: Adobe Illustrator 23.0.1, SVG Export Plug-In . SVG Version: 6.00 Build 0)  -->
<svg version="1.1" id="Capa_1" xmlns="http://www.w3.org/2000/svg" xmlns:xlink="http://www.w3.org/1999/xlink" x="0px" y="0px"
	 viewBox="0 0 512 512" style="enable-background:new 0 0 512 512;" xml:space="preserve">
<style type="text/css">
	.st0{fill:#EAEAEA;}
</style>
<g>
	<g>
		<path class="st0" d="M219.4,283.9c0-27.3-22.2-49.4-49.4-49.4s-49.4,22.2-49.4,49.4h30c0-10.7,8.7-19.4,19.4-19.4
			c10.7,0,19.4,8.7,19.4,19.4H219.4z"/>
		<path class="st0" d="M342.1,234.5c-27.3,0-49.4,22.2-49.4,49.4h30c0-10.7,8.7-19.4,19.4-19.4c10.7,0,19.4,8.7,19.4,19.4h30
			C391.5,256.6,369.3,234.5,342.1,234.5L342.1,234.5z"/>
		<path class="st0" d="M256,371.7c-19,0-36.8-10.2-46.4-26.5l-25.8,15.2c15,25.5,42.7,41.3,72.2,41.3s57.2-15.8,72.2-41.3
			l-25.8-15.2C292.8,361.5,275,371.7,256,371.7L256,371.7z"/>
		<path class="st0" d="M492.5,230.8c-9.6-9.5-21.6-15.9-34.6-18.3C429.8,125.5,348.2,65.7,256,65.7h-10.1
			c-24.2,0-43.8-19.6-43.8-43.8h-30c0,16.4,5.4,31.5,14.4,43.8h-9.5c-24.2,0-43.8-19.6-43.8-43.8h-30c0,32.6,21.2,60.3,50.6,70
			c-46.4,25.5-82.8,68.1-99.8,120.5c-13,2.5-25,8.8-34.6,18.3C6.9,243.4,0,260.1,0,277.9c0,17.6,6.8,34.2,19.1,46.7
			c9.6,9.8,21.8,16.3,35,18.8C82.2,430.3,163.8,490.1,256,490.1s173.8-59.8,201.9-146.7c13.2-2.5,25.4-9,35-18.8
			c12.3-12.5,19.1-29.1,19.1-46.7C512,260.1,505.1,243.4,492.5,230.8L492.5,230.8z M446.1,314.5l-11.3,0.2l-2.9,10.9
			c-21.4,79.2-93.7,134.5-175.9,134.5S101.5,404.8,80.1,325.6l-2.9-10.9l-11.3-0.2C46.1,314.1,30,297.7,30,277.9
			c0-9.8,3.8-19,10.7-25.9c6.7-6.7,15.7-10.5,25.2-10.7l11.3-0.2l2.9-10.9C101.5,151,173.9,95.7,256,95.7
			c27.1,0,49.2,22.1,49.2,49.2S283.1,194,256,194s-49.2-22.1-49.2-49.2h-30c0,43.7,35.5,79.2,79.2,79.2s79.2-35.5,79.2-79.2
			c0-12.4-2.9-24.2-8-34.7c50.3,21.4,89.8,64.9,104.7,120l2.9,10.9l11.3,0.2c9.5,0.2,18.5,4,25.2,10.7c6.9,6.9,10.7,16.1,10.7,25.9
			C482,297.7,465.9,314.1,446.1,314.5L446.1,314.5z"/>
	</g>
</g>
</svg>
