<svg id="Capa_1" enable-background="new 0 0 512 512" height="512" viewBox="0 0 512 512" width="512" xmlns="http://www.w3.org/2000/svg"><g><g><path d="m502 153.009h-147.34c1.209-3.267 1.872-6.797 1.872-10.479v-8h8.833c16.065 0 29.135-13.07 29.135-29.135s-13.069-29.135-29.135-29.135h-77.625c-5.522 0-10 4.477-10 10v56.271c0 3.682.663 7.212 1.872 10.479h-42.979c.693-2.5 1.07-5.145 1.07-7.884v-52.869c0-7.545-2.453-14.889-6.906-20.678l-5.539-7.201c-1.453-1.889-2.374-4.239-2.664-6.797l-3.87-34.19c2.861-1.76 4.775-4.91 4.775-8.515 0-5.523-4.477-10-10-10h-40.833c-5.523 0-10 4.477-10 10 0 3.605 1.914 6.755 4.775 8.515l-3.869 34.19c-.29 2.558-1.21 4.908-2.664 6.797l-5.54 7.201c-4.453 5.79-6.905 13.133-6.905 20.678v52.868c0 2.739.378 5.384 1.07 7.884h-139.533c-5.523 0-10 4.477-10 10v42.058c0 5.523 4.477 10 10 10h20.011v226.485c0 5.523 4.477 10 10 10h98.194c-15.959 23.904-45.121 36.146-45.514 36.308-4.432 1.8-6.968 6.487-6.051 11.182s5.031 8.083 9.814 8.083h123.806c4.777 0 8.878-3.381 9.803-8.068.924-4.687-1.603-9.375-6.022-11.189-.404-.166-29.548-12.409-45.496-36.315h154.946c-15.959 23.904-45.121 36.146-45.515 36.308-4.432 1.8-6.968 6.487-6.051 11.182s5.031 8.083 9.814 8.083h123.805c4.783 0 8.896-3.387 9.814-8.082.917-4.694-1.617-9.381-6.049-11.182-.405-.165-29.615-12.322-45.545-36.309h98.224c5.522 0 10-4.477 10-10v-226.487h20.012c5.522 0 10-4.477 10-10v-42.058c0-5.522-4.478-9.999-10-9.999zm-127.5-47.615c0 5.037-4.098 9.135-9.135 9.135h-8.833v-18.271h8.833c5.037 0 9.135 4.098 9.135 9.136zm-76.76-9.136h38.792v46.271c0 5.663-4.607 10.271-10.271 10.271h-18.251c-5.663 0-10.271-4.607-10.271-10.271v-46.271zm-98.973-71.382 3.956 34.954c.699 6.177 3.01 11.967 6.684 16.742l5.539 7.201c1.779 2.312 2.758 5.325 2.758 8.484v52.868c0 4.16-2.632 7.675-5.749 7.675h-37.74c-3.116 0-5.749-3.515-5.749-7.675v-52.868c0-3.158.979-6.171 2.758-8.484l5.54-7.201c3.673-4.777 5.985-10.566 6.684-16.742l3.956-34.954zm-14.069 462.248h-52.661c.587-.471 1.177-.951 1.766-1.439 10.558-8.761 18.793-18.419 24.573-28.72 5.776 10.301 14.005 19.957 24.555 28.718.589.488 1.179.969 1.767 1.441zm195.285 0h-52.661c.588-.471 1.178-.951 1.767-1.439 10.558-8.761 18.793-18.419 24.573-28.72 5.775 10.301 14.004 19.957 24.555 28.718.589.488 1.179.969 1.766 1.441zm112.017-292.058h-191.655c-5.522 0-10 4.477-10 10s4.478 10 10 10h161.645v216.485h-96.98c-.842-3.716-1.313-7.617-1.338-11.698l.008-8.936h31.102c5.522 0 10-4.477 10-10s-4.478-10-10-10h-31.084l.047-53.575h31.343c16.121 0 29.236-13.115 29.236-29.236s-13.115-29.236-29.236-29.236h-82.668c-16.121 0-29.236 13.115-29.236 29.236s13.115 29.236 29.236 29.236h31.325l-.047 53.575h-31.411c-5.522 0-10 4.477-10 10s4.478 10 10 10h31.393l-.007 8.454c-.001.046-.007.091-.007.137 0 4.205-.482 8.22-1.357 12.042h-172.575c-.849-3.718-1.323-7.618-1.349-11.698l.008-8.936h31.102c5.523 0 10-4.477 10-10s-4.477-10-10-10h-31.085l.047-53.575h31.343c16.121 0 29.236-13.115 29.236-29.236s-13.115-29.236-29.236-29.236h-82.668c-16.121 0-29.236 13.115-29.236 29.236s13.115 29.236 29.236 29.236h31.325l-.047 53.575h-31.41c-5.523 0-10 4.477-10 10s4.477 10 10 10h31.393l-.007 8.453c-.001.047-.007.092-.007.138 0 4.205-.482 8.22-1.357 12.042h-97.011v-216.483h162.334c5.523 0 10-4.477 10-10s-4.477-10-10-10h-192.345v-22.058h472zm-179.582 122.277c-5.093 0-9.236-4.144-9.236-9.236s4.144-9.236 9.236-9.236h82.668c5.093 0 9.236 4.144 9.236 9.236s-4.144 9.236-9.236 9.236zm-195.286 0c-5.093 0-9.236-4.144-9.236-9.236s4.144-9.236 9.236-9.236h82.668c5.093 0 9.236 4.144 9.236 9.236s-4.144 9.236-9.236 9.236z"/><path d="m250.45 213.38c3.697 2.464 8.712 2.156 12.08-.743 2.992-2.575 4.196-6.816 3.002-10.578-1.277-4.022-5.057-6.883-9.282-6.988-4.248-.106-8.183 2.592-9.639 6.576-1.553 4.248.035 9.243 3.839 11.733z"/></g></g></svg>