<?xml version="1.0" encoding="utf-8"?>
<!-- Generator: Adobe Illustrator 23.0.1, SVG Export Plug-In . SVG Version: 6.00 Build 0)  -->
<svg version="1.1" id="Capa_1" xmlns="http://www.w3.org/2000/svg" xmlns:xlink="http://www.w3.org/1999/xlink" x="0px" y="0px"
	 viewBox="0 0 496 496" style="enable-background:new 0 0 496 496;" xml:space="preserve">
<style type="text/css">
	.st0{fill:#EAEAEA;}
</style>
<g>
	<g>
		<g>
			<path class="st0" d="M56,264c-13.2,0-24,10.8-24,24s10.8,24,24,24s24-10.8,24-24S69.2,264,56,264z M56,296c-4.4,0-8-3.6-8-8
				s3.6-8,8-8s8,3.6,8,8S60.4,296,56,296z"/>
			<path class="st0" d="M496,286.6c-0.7-29.9-24.7-53.8-54.6-54.6c-14.7-0.1-28.8,5.2-39.6,15.8c-0.1,0.1-0.2,0.2-0.3,0.3
				c3.1-45,10.6-64.7,17.5-82.5c6.7-17.5,13.1-34,13.1-69.6c0-43.7-34.5-72-88-72c-16.4,0-24.8-4.2-35.4-9.6
				C295.3,7.6,280.3,0,248,0s-47.3,7.6-60.6,14.4c-10.6,5.4-19,9.6-35.4,9.6c-53.5,0-88,28.3-88,72c0,35.6,6.3,52.2,13.1,69.6
				c6.8,17.8,14.3,37.5,17.5,82.5c-0.1-0.1-0.2-0.2-0.3-0.3c-10.8-10.5-25.1-16.2-39.6-15.8C24.7,232.7,0.8,256.7,0,286.6
				c-0.4,14.7,5.2,28.8,15.8,39.6c8.6,8.8,19.9,14.6,31.9,16.8c-0.6,6.2-1.9,10.1-3.3,14.4c-2.1,6.2-4.4,13.2-4.4,26.5
				c0,18.6,6.4,32.1,32,41.2V448c-13.2,0-24,10.8-24,24s10.8,24,24,24h8c22.1,0,40-17.9,40-40v-21.1c30.4,3.4,71.8,5.1,128,5.1
				s97.6-1.6,128-5.1V456c0,22.1,17.9,40,40,40h8c13.2,0,24-10.8,24-24s-10.8-24-24-24v-22.8c25.6-9.1,32-22.6,32-41.2
				c0-13.3-2.3-20.3-4.4-26.5c-1.4-4.3-2.7-8.2-3.3-14.4c12-2.2,23.3-8,31.9-16.8C490.7,315.4,496.3,301.3,496,286.6z M92,159.9
				c-6.4-16.8-12-31.2-12-63.9c0-34.5,27.6-56,72-56c20.2,0,31.6-5.8,42.6-11.4C206.9,22.4,219.6,16,248,16s41.1,6.4,53.4,12.6
				c11,5.6,22.4,11.4,42.6,11.4c44.4,0,72,21.5,72,56c0,32.7-5.6,47.2-12,63.9c-8.2,21.3-17.3,45-19.5,106.2
				c-4.1-2.1-9.3-4.5-15.7-7c2.8-59.4,12.4-84.6,20.2-104.9c6.4-16.5,10.9-28.4,10.9-58.2c0-25.4-20.4-40-56-40
				c-24.1,0-37.8-7-49.9-13.1C282.6,37.1,272.6,32,248,32s-34.6,5.1-46.1,10.9C189.8,49,176.1,56,152,56c-35.6,0-56,14.6-56,40
				c0,29.7,4.6,41.7,10.9,58.2c7.8,20.3,17.4,45.6,20.2,104.9c-6.4,2.5-11.6,4.9-15.7,7C109.3,204.9,100.2,181.2,92,159.9z
				 M353.1,253.7C329.3,246.4,295,240,248,240s-81.3,6.4-105.1,13.7c-3.2-58.6-13-84.4-21.1-105.2c-6.2-16-9.9-25.7-9.9-52.4
				c0-19.8,21.8-24,40-24c27.9,0,44.8-8.6,57.1-14.8c10.5-5.3,18.1-9.2,38.9-9.2s28.4,3.8,38.9,9.2C299.2,63.4,316.1,72,344,72
				c18.2,0,40,4.2,40,24c0,26.8-3.7,36.4-9.9,52.4C366.1,169.3,356.3,195,353.1,253.7z M104,456c0,13.2-10.8,24-24,24h-8
				c-4.4,0-8-3.6-8-8s3.6-8,8-8c8.8,0,16-7.2,16-16v-18.3c4.9,1.1,10.2,2.1,16,3V456z M432,472c0,4.4-3.6,8-8,8h-8
				c-13.2,0-24-10.8-24-24v-23.2c5.8-0.9,11.1-1.9,16-3V448c0,8.8,7.2,16,16,16C428.4,464,432,467.6,432,472z M468.7,315
				c-8,8.2-19.3,13-30.8,13H416v16h16.3c0.7,8.4,2.5,13.7,4.1,18.5c1.9,5.8,3.6,10.8,3.6,21.5c0,22.7-14.1,40-192,40
				S56,406.7,56,384c0-10.7,1.7-15.7,3.6-21.5c1.6-4.8,3.4-10.2,4.1-18.5H80v-16H58.1c-11.5,0-22.8-4.7-30.8-13
				c-7.5-7.7-11.5-17.7-11.2-28c0.5-21.3,17.6-38.5,39-39c10.3-0.4,20.4,3.7,28,11.2c8.1,7.9,12.8,18.9,12.9,30.3c0,2.2,0,4.2,0,6.4
				v14.3c0,16.2-2.6,32.2-7.7,47.5l-7.9,23.6l15.2,5.1l7.9-23.6c1.2-3.6,2.2-7.2,3.2-10.9H352v-16H110c1.3-8.5,2-17.1,2-25.7v-20.2
				c0-0.4,0-0.7-0.1-1.1c0-1.5,0-3.1,0-4.6c10.6-6.7,51.6-28.3,136.1-28.3c84.5,0,125.5,21.7,136.1,28.3c0,1.5,0,3.1,0,4.6
				c0,0.4-0.1,0.7-0.1,1.1v20.2c0,8.6,0.7,17.2,2,25.7h-18v16h21.4c1,3.7,2,7.3,3.2,10.9l7.9,23.6l15.2-5.1l-7.9-23.6
				c-5.1-15.4-7.7-31.3-7.7-47.5V296c0-2.2,0-4.3,0-6.4c0.1-11.4,4.8-22.4,12.9-30.3c7.7-7.5,17.7-11.4,28-11.2
				c21.3,0.5,38.5,17.6,39,39C480.2,297.4,476.2,307.3,468.7,315z"/>
			<path class="st0" d="M440,264c-13.2,0-24,10.8-24,24s10.8,24,24,24s24-10.8,24-24S453.2,264,440,264z M440,296c-4.4,0-8-3.6-8-8
				s3.6-8,8-8s8,3.6,8,8S444.4,296,440,296z"/>
			<rect x="144" y="96" class="st0" width="16" height="16"/>
			<rect x="192" y="96" class="st0" width="16" height="16"/>
			<rect x="240" y="96" class="st0" width="16" height="16"/>
			<rect x="288" y="96" class="st0" width="16" height="16"/>
			<rect x="336" y="96" class="st0" width="16" height="16"/>
			<rect x="144" y="384" class="st0" width="16" height="16"/>
			<rect x="192" y="384" class="st0" width="16" height="16"/>
			<rect x="240" y="384" class="st0" width="16" height="16"/>
			<rect x="288" y="384" class="st0" width="16" height="16"/>
			<rect x="336" y="384" class="st0" width="16" height="16"/>
			<rect x="168" y="144" class="st0" width="16" height="16"/>
			<rect x="216" y="144" class="st0" width="16" height="16"/>
			<rect x="264" y="144" class="st0" width="16" height="16"/>
			<rect x="312" y="144" class="st0" width="16" height="16"/>
			<rect x="144" y="192" class="st0" width="16" height="16"/>
			<rect x="192" y="192" class="st0" width="16" height="16"/>
			<rect x="240" y="192" class="st0" width="16" height="16"/>
			<rect x="288" y="192" class="st0" width="16" height="16"/>
			<rect x="336" y="192" class="st0" width="16" height="16"/>
		</g>
	</g>
</g>
</svg>
