<?xml version="1.0" encoding="iso-8859-1"?>
<!-- Generator: Adobe Illustrator 19.0.0, SVG Export Plug-In . SVG Version: 6.00 Build 0)  -->
<svg version="1.1" id="Capa_1" xmlns="http://www.w3.org/2000/svg" xmlns:xlink="http://www.w3.org/1999/xlink" x="0px" y="0px"
	 viewBox="0 0 496.001 496.001" style="enable-background:new 0 0 496.001 496.001;" xml:space="preserve">
<g>
	<g>
		<g>
			<path d="M56,264c-13.232,0-24,10.768-24,24s10.768,24,24,24s24-10.768,24-24S69.232,264,56,264z M56,296c-4.416,0-8-3.584-8-8
				c0-4.416,3.584-8,8-8s8,3.584,8,8C64,292.416,60.416,296,56,296z"/>
			<path d="M495.984,286.6c-0.736-29.872-24.712-53.848-54.584-54.584c-14.672-0.128-28.808,5.248-39.616,15.8
				c-0.104,0.104-0.192,0.216-0.296,0.32c3.112-44.976,10.624-64.704,17.456-82.488C425.656,148.168,432,131.648,432,96
				c0-43.744-34.536-72-88-72c-16.408,0-24.792-4.248-35.4-9.624C295.32,7.632,280.264,0,248,0c-32.264,0-47.32,7.632-60.6,14.376
				C176.792,19.752,168.408,24,152,24c-53.464,0-88,28.256-88,72c0,35.648,6.344,52.168,13.056,69.64
				c6.832,17.784,14.344,37.512,17.456,82.488c-0.104-0.104-0.192-0.216-0.296-0.32C83.4,237.264,69.144,231.64,54.6,232.008
				c-29.872,0.736-53.848,24.712-54.584,54.584c-0.36,14.736,5.248,28.808,15.8,39.616c8.592,8.808,19.856,14.64,31.904,16.8
				c-0.56,6.208-1.856,10.112-3.296,14.448C42.344,363.672,40,370.704,40,384c0,18.616,6.44,32.12,32,41.2V448
				c-13.232,0-24,10.768-24,24s10.768,24,24,24h8c22.056,0,40-17.944,40-40v-21.08c30.376,3.448,71.776,5.08,128,5.08
				s97.624-1.632,128-5.08V456c0,22.056,17.944,40,40,40h8c13.232,0,24-10.768,24-24s-10.768-24-24-24v-22.8
				c25.552-9.08,32-22.584,32-41.2c0-13.296-2.344-20.328-4.416-26.528c-1.44-4.336-2.744-8.24-3.296-14.448
				c12.04-2.168,23.304-7.992,31.896-16.8C490.736,315.408,496.344,301.336,495.984,286.6z M91.992,159.904
				C85.552,143.152,80,128.68,80,96c0-34.536,27.584-56,72-56c20.232,0,31.616-5.776,42.632-11.36C206.888,22.432,219.56,16,248,16
				s41.112,6.432,53.368,12.64C312.384,34.224,323.768,40,344,40c44.416,0,72,21.464,72,56c0,32.68-5.552,47.152-11.992,63.904
				c-8.16,21.264-17.272,45.032-19.496,106.232c-4.128-2.144-9.296-4.544-15.688-7.048c2.816-59.376,12.44-84.616,20.24-104.928
				C395.416,137.664,400,125.728,400,96c0-25.424-20.416-40-56-40c-24.072,0-37.776-6.952-49.888-13.104
				C282.568,37.056,272.6,32,248,32c-24.6,0-34.568,5.056-46.136,10.912C189.776,49.048,176.072,56,152,56
				c-35.584,0-56,14.576-56,40c0,29.728,4.584,41.664,10.936,58.184c7.792,20.32,17.424,45.56,20.232,104.912
				c-6.392,2.496-11.552,4.896-15.688,7.048C109.264,204.944,100.152,181.168,91.992,159.904z M353.072,253.664
				C329.288,246.424,295.008,240,248,240s-81.288,6.424-105.072,13.664c-3.2-58.616-13.048-84.352-21.056-105.224
				C115.712,132.424,112,122.76,112,96c0-19.832,21.752-24,40-24c27.896,0,44.776-8.56,57.128-14.832
				C219.632,51.84,227.224,48,248,48s28.368,3.84,38.896,9.176C299.224,63.44,316.104,72,344,72c18.248,0,40,4.168,40,24
				c0,26.76-3.712,36.424-9.864,52.44C366.128,169.288,356.28,195.024,353.072,253.664z M104,456c0,13.232-10.768,24-24,24h-8
				c-4.416,0-8-3.584-8-8c0-4.416,3.584-8,8-8c8.816,0,16-7.184,16-16v-18.264c4.856,1.104,10.168,2.12,16,3.04V456z M432,472
				c0,4.416-3.584,8-8,8h-8c-13.232,0-24-10.768-24-24v-23.232c5.832-0.92,11.136-1.936,16-3.04V448c0,8.816,7.176,16,16,16
				C428.416,464,432,467.584,432,472z M468.744,315.04c-8.04,8.232-19.256,12.96-30.8,12.96H416v16h16.336
				c0.712,8.36,2.472,13.712,4.08,18.528C438.336,368.304,440,373.296,440,384c0,22.664-14.144,40-192,40S56,406.664,56,384
				c0-10.704,1.664-15.696,3.584-21.472c1.608-4.816,3.368-10.176,4.08-18.528H80v-16H58.056c-11.536,0-22.76-4.728-30.8-12.96
				c-7.504-7.696-11.504-17.656-11.24-28.048c0.512-21.336,17.64-38.464,38.976-38.976c10.264-0.4,20.352,3.736,28.048,11.24
				c8.112,7.92,12.776,18.936,12.912,30.296C95.96,291.712,96,293.76,96,296v14.304c0,16.192-2.592,32.184-7.712,47.536
				l-7.872,23.624l15.168,5.064l7.872-23.624c1.2-3.6,2.208-7.248,3.16-10.904H352v-16H109.968
				c1.328-8.48,2.032-17.056,2.032-25.696v-20.248c0-0.376-0.048-0.744-0.056-1.112c-0.008-1.544-0.016-3.12-0.04-4.624
				C122.504,277.664,163.528,256,248,256c84.464,0,125.488,21.664,136.096,28.312c-0.016,1.504-0.024,3.08-0.04,4.624
				c-0.008,0.376-0.056,0.744-0.056,1.12v20.248c0,8.64,0.704,17.216,2.032,25.696H368v16h21.384
				c0.952,3.656,1.96,7.304,3.16,10.904l7.872,23.624l15.168-5.064l-7.872-23.624c-5.12-15.352-7.712-31.344-7.712-47.536V296
				c0-2.24,0.032-4.288,0.048-6.448c0.136-11.36,4.8-22.376,12.912-30.296c7.696-7.504,17.72-11.408,28.048-11.24
				c21.336,0.512,38.464,17.64,38.976,38.976C480.24,297.384,476.248,307.344,468.744,315.04z"/>
			<path d="M440,264c-13.232,0-24,10.768-24,24s10.768,24,24,24s24-10.768,24-24S453.232,264,440,264z M440,296
				c-4.416,0-8-3.584-8-8c0-4.416,3.584-8,8-8c4.416,0,8,3.584,8,8C448,292.416,444.416,296,440,296z"/>
			<rect x="144" y="96" width="16" height="16"/>
			<rect x="192" y="96" width="16" height="16"/>
			<rect x="240" y="96" width="16" height="16"/>
			<rect x="288" y="96" width="16" height="16"/>
			<rect x="336" y="96" width="16" height="16"/>
			<rect x="144" y="384" width="16" height="16"/>
			<rect x="192" y="384" width="16" height="16"/>
			<rect x="240" y="384" width="16" height="16"/>
			<rect x="288" y="384" width="16" height="16"/>
			<rect x="336" y="384" width="16" height="16"/>
			<rect x="168" y="144" width="16" height="16"/>
			<rect x="216" y="144" width="16" height="16"/>
			<rect x="264" y="144" width="16" height="16"/>
			<rect x="312" y="144" width="16" height="16"/>
			<rect x="144" y="192" width="16" height="16"/>
			<rect x="192" y="192" width="16" height="16"/>
			<rect x="240" y="192" width="16" height="16"/>
			<rect x="288" y="192" width="16" height="16"/>
			<rect x="336" y="192" width="16" height="16"/>
		</g>
	</g>
</g>
<g>
</g>
<g>
</g>
<g>
</g>
<g>
</g>
<g>
</g>
<g>
</g>
<g>
</g>
<g>
</g>
<g>
</g>
<g>
</g>
<g>
</g>
<g>
</g>
<g>
</g>
<g>
</g>
<g>
</g>
</svg>
