<?xml version="1.0" encoding="utf-8"?>
<!-- Generator: Adobe Illustrator 23.0.1, SVG Export Plug-In . SVG Version: 6.00 Build 0)  -->
<svg version="1.1" id="line_icons" xmlns="http://www.w3.org/2000/svg" xmlns:xlink="http://www.w3.org/1999/xlink" x="0px" y="0px"
	 viewBox="0 0 512 512" style="enable-background:new 0 0 512 512;" xml:space="preserve">
<style type="text/css">
	.st0{fill:#EAEAEA;}
</style>
<path class="st0" d="M202.5,384.6C98.2,384.5,13.7,299.9,13.8,195.6C13.9,91.4,98.5,6.9,202.8,7C307,7.1,391.5,91.7,391.4,195.9
	c0,48.8-19,95.8-52.9,130.9C302.9,363.8,253.8,384.7,202.5,384.6L202.5,384.6z M202.5,20.8c-96.6,0.1-174.9,78.4-174.9,175
	s78.4,174.9,175,174.9s174.9-78.4,174.9-175c0-47.5-19.4-93-53.6-125.9C291.4,38.3,247.8,20.8,202.5,20.8L202.5,20.8z"/>
<path class="st0" d="M202.4,340.6c-80,0-144.8-64.9-144.7-144.9c0-37.5,14.5-73.4,40.5-100.4C153.7,37.7,245.4,36,303,91.5
	s59.3,147.2,3.8,204.8c-26.7,27.7-63.2,43.6-101.6,44.3C204.2,340.6,203.3,340.6,202.4,340.6L202.4,340.6z M108.2,104.9
	c-50.2,52.1-48.7,135,3.4,185.2s135,48.7,185.2-3.4s48.7-135-3.4-185.2c0,0,0,0,0,0c-51.4-50.2-133.7-49.3-183.9,2.1
	C109,104,108.6,104.5,108.2,104.9L108.2,104.9z"/>
<path class="st0" d="M453.6,496.1c-0.5,0-0.9,0-1.4,0c-16.3-0.4-31.7-7.6-42.5-19.9L299.9,351c-2.4-3-1.9-7.3,1-9.7
	c2.8-2.3,6.8-2,9.3,0.6l109.9,125.2c16.2,18.5,44.3,20.4,62.8,4.2c18.5-16.2,20.4-44.3,4.2-62.8c-1.7-1.9-3.5-3.7-5.5-5.3
	L352.4,298.1c-3-2.4-3.4-6.8-1-9.8c2.4-3,6.8-3.4,9.8-1l129.2,105.2c25,20.3,28.8,57,8.5,82C487.8,488.2,471.2,496.1,453.6,496.1
	L453.6,496.1z"/>
</svg>
